<svg width="25" height="24" viewBox="0 0 25 24" fill="none" xmlns="http://www.w3.org/2000/svg">
    <path d="M6 16C11 18.5 14 18.5 19 16" stroke="black" stroke-width="1.5" stroke-linecap="round" stroke-linejoin="round"/>
    <path d="M16 17.5L17 19.5C17 19.5 21.1713 18.1717 22.5 16C22.5 15 23.0301 7.85339 19.5 5.5C18 4.5 15.5 4 15.5 4L14.5 6H12.5" stroke="black" stroke-width="1.5" stroke-linecap="round" stroke-linejoin="round"/>
    <path d="M9.02828 17.5L8.02828 19.5C8.02828 19.5 3.85695 18.1717 2.52828 16C2.52828 15 1.99819 7.85339 5.52828 5.5C7.02828 4.5 9.52828 4 9.52828 4L10.5283 6H12.5283" stroke="black" stroke-width="1.5" stroke-linecap="round" stroke-linejoin="round"/>
    <path d="M9 14C8.17157 14 7.5 13.1046 7.5 12C7.5 10.8954 8.17157 10 9 10C9.82843 10 10.5 10.8954 10.5 12C10.5 13.1046 9.82843 14 9 14Z" stroke="black" stroke-width="1.5" stroke-linecap="round" stroke-linejoin="round"/>
    <path d="M16 14C15.1716 14 14.5 13.1046 14.5 12C14.5 10.8954 15.1716 10 16 10C16.8284 10 17.5 10.8954 17.5 12C17.5 13.1046 16.8284 14 16 14Z" stroke="black" stroke-width="1.5" stroke-linecap="round" stroke-linejoin="round"/>
</svg>
