<svg width="24" height="24" viewBox="0 0 24 24" fill="none" xmlns="http://www.w3.org/2000/svg">
    <path fill-rule="evenodd" clip-rule="evenodd" d="M9.70339 9.72102C9.66467 9.8704 9.59714 10.0106 9.50454 10.1339C9.33218 10.3586 9.10406 10.5338 8.84305 10.642C8.60833 10.7436 8.35968 10.8094 8.10554 10.8369C8.05328 10.8435 7.99915 10.8476 7.94664 10.8516L7.93809 10.8523C7.77712 10.8584 7.62237 10.9162 7.49643 11.0171C7.37049 11.118 7.28003 11.2568 7.23827 11.413C7.21916 11.4908 7.20492 11.5697 7.19572 11.6492C7.18109 11.7692 7.17358 11.892 7.16542 12.0249C7.15959 12.1202 7.15338 12.2208 7.14405 12.3291C7.0894 12.7705 6.9623 13.1996 6.76798 13.5992C6.72829 13.6832 6.68782 13.7646 6.648 13.8446C6.43497 14.2733 6.24246 14.6605 6.29769 15.1791C6.34095 15.5786 6.54472 15.8464 6.81544 16.1225C6.94404 16.2546 7.11453 16.3675 7.29149 16.4847C7.78683 16.8126 8.33294 17.1742 8.153 18.0851C8.00576 18.8232 6.78753 19.5977 5.07526 19.8683C5.24135 19.8429 4.87551 19.2159 4.83491 19.1463L4.83245 19.1421C4.78524 19.0678 4.73688 18.9946 4.68864 18.9216C4.54929 18.7106 4.41047 18.5008 4.3022 18.2681C4.01613 17.6604 3.88352 16.9573 4.00072 16.2914C4.10692 15.6888 4.50358 15.2074 4.88541 14.7438C4.94771 14.6682 5.00954 14.5932 5.0697 14.5181C5.58045 13.881 6.11633 13.0462 6.23489 12.2191C6.24492 12.1472 6.25386 12.0689 6.26325 11.9865C6.28008 11.8389 6.29834 11.6782 6.32703 11.5182C6.36957 11.2418 6.45582 10.9739 6.5824 10.7247C6.66878 10.5614 6.78255 10.4141 6.91872 10.2895C6.98969 10.2233 7.0365 10.1351 7.05172 10.039C7.06687 9.94299 7.04952 9.84456 7.00244 9.75955L4.27287 4.82786L8.19347 9.68806C8.23815 9.74439 8.29455 9.79017 8.35878 9.82209C8.42301 9.85402 8.49346 9.87137 8.56507 9.87292C8.63675 9.87448 8.70785 9.86017 8.77338 9.83097C8.83891 9.80183 8.89725 9.75851 8.94426 9.70418C8.99392 9.64604 9.02209 9.57242 9.02396 9.49575C9.02591 9.41915 9.00143 9.34423 8.95468 9.28363C8.77241 9.04962 8.58269 8.81243 8.39387 8.57629C8.31747 8.48078 8.24113 8.38527 8.16556 8.29041L7.17895 7.06384L5.19874 4.61477L3 2L5.45276 4.39539L7.5606 6.73646L8.61215 7.90981C8.70876 8.01911 8.80536 8.12744 8.90191 8.2357C9.15418 8.51853 9.40645 8.80136 9.65872 9.10142L9.71596 9.17148L9.72852 9.28013C9.74548 9.42744 9.737 9.57662 9.70339 9.72102ZM19.7865 11.3693L19.7906 11.3756C19.7899 10.8527 19.4676 9.98986 18.8152 9.15995L18.7998 9.13962C18.5989 8.89014 18.3799 8.65587 18.1446 8.43869C18.1007 8.39596 18.0533 8.35387 18.0051 8.31185C17.7037 8.04779 17.3742 7.81786 17.0227 7.62633L16.9976 7.6137C15.8931 7.00951 14.4557 6.69832 12.6834 7.04875C12.4454 6.75847 12.189 6.48387 11.9159 6.22661C11.4976 5.82619 11.0053 5.51215 10.4667 5.3021C9.933 5.10584 9.36138 5.03578 8.7963 5.09742C9.34098 5.1467 9.87155 5.29886 10.36 5.54601C10.8317 5.7999 11.2565 6.13324 11.6159 6.53152C11.9802 6.93809 12.3226 7.36389 12.6416 7.80718L12.7216 7.91188C13.0338 8.32026 13.3516 8.73603 13.7475 9.10602C13.9654 9.31199 14.2086 9.48934 14.4711 9.6338C14.5408 9.66954 14.6113 9.70315 14.6804 9.73261C14.7494 9.76207 14.8143 9.7894 14.8841 9.81465C15.0188 9.86716 15.1583 9.91067 15.2979 9.95062C15.8561 10.1104 16.4275 10.1679 16.9857 10.1988C17.0634 10.2028 17.1409 10.2066 17.2181 10.2105C17.4174 10.2204 17.6151 10.2302 17.8097 10.2443C18.0764 10.2602 18.3409 10.302 18.5996 10.369C18.9881 10.4708 19.3302 10.7034 19.5688 11.0279C19.6498 11.136 19.7226 11.2501 19.7865 11.3693ZM18.1525 8.43954C18.1245 8.41351 18.0959 8.38773 18.0675 8.36203C18.0493 8.34552 18.031 8.32907 18.013 8.31262C18.0269 8.32538 18.0408 8.33826 18.0548 8.35122C18.0875 8.38158 18.1202 8.41195 18.1525 8.43954ZM17.4548 13.6015C15.6598 12.8699 13.7822 12.1044 14.0617 9.95626C14.661 10.599 15.6018 10.7339 16.625 10.8805C17.5532 11.0135 18.5492 11.1562 19.4197 11.6966C21.4738 12.9709 21.1738 15.4465 20.4761 16.3578C20.539 14.8587 19.0287 14.2431 17.4548 13.6015ZM10.223 12.5263C10.6968 12.4808 11.7065 12.2334 11.255 11.435C11.1579 11.2726 11.0171 11.141 10.8489 11.0553C10.6807 10.9696 10.4918 10.9333 10.304 10.9506C10.1134 10.9712 9.93365 11.0502 9.78925 11.1768C9.64486 11.3035 9.54268 11.4716 9.49671 11.6586C9.35646 12.1808 9.50506 12.5964 10.223 12.5263ZM10.0868 6.20971C9.78964 5.86485 9.32842 5.684 8.87627 5.61815C8.85937 5.73127 8.84868 5.84523 8.84421 5.95951C8.82395 6.9008 9.15677 7.93467 9.80078 8.65315C10.0068 8.88541 10.2553 9.07571 10.5327 9.21389C10.6932 9.29237 11.1188 9.4872 11.2765 9.31199C11.2885 9.29593 11.2961 9.27696 11.2984 9.25701C11.3007 9.23707 11.2978 9.21687 11.2898 9.19848C11.2636 9.12343 11.2132 9.05532 11.1631 8.98772C11.1275 8.9398 11.0922 8.89214 11.0658 8.84235C11.0391 8.79223 11.0106 8.74328 10.9821 8.69446C10.9285 8.60264 10.8751 8.51102 10.8341 8.4113C10.726 8.15029 10.6697 7.87277 10.6136 7.59609C10.6024 7.54079 10.5911 7.48517 10.5795 7.43C10.4937 7.00317 10.3841 6.55457 10.0868 6.20971ZM16.4374 13.7186C15.9763 15.0112 16.7199 16.103 17.4592 17.1883C18.2862 18.4024 19.1077 19.6083 18.2312 21.0783C19.9344 20.3718 20.7431 18.2375 20.0363 16.5441C19.5909 15.473 18.5175 14.8923 17.5211 14.3534C17.1345 14.1443 16.7595 13.9414 16.4374 13.7186ZM11.4534 16.8042C11.1447 16.9307 10.8536 17.0968 10.5874 17.2984C11.1927 17.0778 11.8281 16.9519 12.4714 16.9247C12.5879 16.9178 12.7053 16.9124 12.8237 16.9069C13.0282 16.8974 13.2361 16.8878 13.4482 16.8701C13.7958 16.8464 14.1388 16.7756 14.4676 16.6598C14.8122 16.5387 15.1258 16.3424 15.3858 16.0851C15.6486 15.8194 15.8328 15.4858 15.9182 15.1212C15.9933 14.7769 15.9827 14.4193 15.8875 14.08C15.7922 13.7408 15.6151 13.4303 15.3719 13.1762C15.4892 13.4752 15.5614 13.7901 15.5861 14.1105C15.6073 14.4088 15.5669 14.7083 15.4674 14.9902C15.3703 15.2573 15.2116 15.4976 15.0042 15.6911C14.7899 15.8866 14.5418 16.041 14.2722 16.1467C13.8975 16.2983 13.4738 16.3604 13.0324 16.425C12.8311 16.4545 12.6261 16.4845 12.4204 16.5238C12.0896 16.5847 11.7656 16.6786 11.4534 16.8042ZM16.804 22.1405L16.7744 22.1644C16.6964 22.2274 16.6172 22.2916 16.5318 22.3491C16.4229 22.4211 16.3089 22.4849 16.1906 22.5397C15.9442 22.6605 15.6734 22.7221 15.3993 22.7199C14.657 22.7059 14.1322 22.1508 13.8252 21.5234C13.7448 21.359 13.6739 21.1895 13.6029 21.02C13.4894 20.7487 13.3759 20.4774 13.2231 20.2267C12.868 19.6443 12.2602 19.1754 11.5485 19.2622C11.2583 19.2987 10.9861 19.4298 10.8249 19.6828C10.4007 20.3438 11.0099 21.2697 11.7864 21.1386C11.8525 21.1285 11.9171 21.1106 11.979 21.0854C12.0407 21.059 12.0983 21.0238 12.1499 20.9809C12.2585 20.8902 12.3402 20.7715 12.3865 20.6375C12.4375 20.4978 12.4488 20.3466 12.4193 20.2008C12.3874 20.0484 12.2978 19.9145 12.1695 19.8272C12.3187 19.8974 12.435 20.0231 12.494 20.1776C12.555 20.3368 12.5708 20.5098 12.5393 20.6774C12.5088 20.852 12.4322 21.0152 12.3174 21.1499C12.2565 21.2191 12.1859 21.2793 12.1081 21.3286C12.0309 21.3773 11.9482 21.4166 11.8618 21.4456C11.6865 21.5058 11.5 21.5252 11.3161 21.5024C11.058 21.4655 10.8146 21.3594 10.6115 21.1954C10.5739 21.1656 10.5379 21.1344 10.503 21.102C10.3648 20.9822 10.2393 20.8481 10.1286 20.7019C10.0789 20.647 10.0285 20.5928 9.9758 20.5408C9.72703 20.2785 9.43351 20.0632 9.10918 19.905C8.88553 19.8063 8.65145 19.7334 8.41149 19.6877C8.29073 19.6625 8.16867 19.6443 8.04655 19.6289C8.03328 19.6275 8.00783 19.623 7.9761 19.6175C7.87418 19.5997 7.7081 19.5708 7.67883 19.598C8.05626 19.249 8.46762 18.939 8.90683 18.6728C9.35782 18.404 9.84203 18.1959 10.347 18.0539C10.8705 17.9058 11.4182 17.8636 11.9581 17.9298C12.236 17.9633 12.5082 18.0341 12.7675 18.1401C13.0391 18.2491 13.2898 18.4047 13.5085 18.5999C13.7248 18.8047 13.8997 19.0496 14.0234 19.3211C14.1351 19.5754 14.2183 19.8413 14.2718 20.1139C14.3004 20.2606 14.322 20.4217 14.3443 20.5886C14.446 21.349 14.5635 22.2263 15.4349 22.3792C15.4903 22.39 15.5462 22.398 15.6024 22.4031L15.7761 22.4073C15.8956 22.3987 16.0143 22.3816 16.1313 22.3561C16.3737 22.2989 16.61 22.2179 16.8367 22.1143L16.804 22.1405ZM10.1745 20.7531C10.1953 20.777 10.2164 20.8007 10.2378 20.8242C10.229 20.8145 10.2204 20.8046 10.2116 20.7948C10.1993 20.7809 10.1869 20.767 10.1745 20.7531Z" fill="black"/>
</svg>
