<svg width="308" height="87" viewBox="0 0 308 87" fill="none" xmlns="http://www.w3.org/2000/svg">
    <path d="M74.063 32.7627L74.4474 32.443C74.4475 32.4431 74.4476 32.4432 74.4477 32.4434C76.8248 35.3015 78.5628 38.6352 79.5452 42.2204C79.8499 43.3277 80.0904 44.4715 80.3266 45.5995L80.3369 45.6488C80.5707 46.7654 80.8012 47.8662 81.0894 48.9308C81.6741 51.091 82.4825 53.0461 83.9687 54.5712C84.4013 55.0036 84.89 55.4021 85.4057 55.8227C85.4592 55.8663 85.5129 55.9102 85.5669 55.9543C86.1291 56.4137 86.715 56.9024 87.2291 57.4613C88.44 58.6063 88.9408 60.3153 88.5382 61.9335L88.5323 61.9574L88.524 61.9805C88.0598 63.2838 86.9632 63.9679 85.7766 64.351C84.6349 64.7196 83.318 64.8395 82.2051 64.9409L82.0985 64.9506L82.0965 64.9508C78.2208 65.2888 74.5588 66.5643 70.9274 68.1436C69.3656 68.8229 67.8168 69.555 66.2596 70.2911C66.0061 70.411 65.7523 70.5309 65.4982 70.6508C63.6871 71.505 61.8627 72.3527 60.0114 73.1058L60.0112 73.1058C54.5016 75.3442 48.6909 76.7546 42.7681 77.2907L42.7673 77.2908C41.5537 77.3987 40.4807 77.9751 39.459 78.7973C38.6121 79.4788 37.8341 80.2997 37.052 81.1249C36.883 81.3031 36.7139 81.4816 36.5439 81.6589C35.5816 82.662 34.3949 83.6642 33.0986 84.297C31.7991 84.9315 30.3465 85.2137 28.9033 84.693L28.1632 84.426L28.2423 84.3468C26.6311 83.4398 25.6894 81.6368 25.1847 79.9784C24.9899 79.3384 24.8336 78.6688 24.6819 78.019C24.6119 77.7193 24.5429 77.4238 24.4716 77.1373C24.2405 76.2094 23.977 75.3364 23.5606 74.5458L23.5541 74.5334L23.5543 74.5334C23.0045 73.4149 22.1984 72.4603 21.2731 71.5412C20.8106 71.0817 20.3238 70.6363 19.8271 70.1836L19.7585 70.1211C19.2865 69.6909 18.8063 69.2533 18.3438 68.8005C18.3436 68.8003 18.3434 68.8001 18.3432 68.7999L18.693 68.4427M74.063 32.7627C73.4883 32.0704 72.8721 31.4024 72.2564 30.7347C70.5686 28.9048 68.8836 27.078 68.063 24.7627C67.7117 23.7821 67.5363 22.7354 67.361 21.689C67.202 20.7401 67.0431 19.7915 66.753 18.8926C66.143 17.0026 64.653 15.0827 62.653 15.0027C60.2575 14.9114 58.9103 17.1382 57.5487 19.389C56.2274 21.5731 54.8926 23.7797 52.573 23.9126C44.1784 24.3949 35.9614 26.5291 28.393 30.1927C27.2793 30.7332 26.1701 31.3096 25.0586 31.8871C20.7209 34.141 16.3469 36.4138 11.523 36.6526C10.796 36.6905 10.0631 36.6798 9.33035 36.669C7.93644 36.6485 6.54325 36.628 5.19302 36.9427C3.13302 37.4227 1.09302 39.0028 1.00302 41.1128C0.903022 43.5628 3.30301 45.2927 5.46301 46.4627C7.62301 47.6327 10.103 49.0927 10.383 51.5327C11.1316 57.9557 14.0655 63.9259 18.693 68.4427M74.063 32.7627C76.3947 35.5662 78.0995 38.8361 79.063 42.3528L74.063 32.7627ZM18.693 68.4427C19.1492 68.8893 19.6236 69.3216 20.0974 69.7534C21.6077 71.1298 23.1124 72.5012 24.003 74.3128L18.693 68.4427ZM82.053 64.4527C76.3972 64.946 71.222 67.3924 66.0448 69.8396C63.9814 70.815 61.9176 71.7905 59.823 72.6426C54.3591 74.8624 48.5966 76.2611 42.723 76.7928L82.053 64.4527ZM82.053 64.4527L82.1379 64.4449C84.4243 64.2365 87.2826 63.9759 88.053 61.8128L82.053 64.4527ZM73.7683 48.5443L73.7448 48.2646C73.1457 41.1381 69.3647 34.662 63.4534 30.6372C62.7342 30.1559 62.3694 29.4608 62.1783 28.7203C61.9909 27.9943 61.9605 27.1826 61.9358 26.4303L61.9333 26.3538C61.9089 25.6067 61.8863 24.9155 61.7537 24.3027C61.7139 24.1186 61.665 23.9464 61.605 23.7864C61.0349 26.0688 59.0749 27.8175 56.6386 28.0407L56.6304 28.0414L56.6222 28.0419C44.0061 28.7805 30.7216 31.2833 21.9014 40.0715C21.2151 40.8835 20.3581 41.5343 19.3913 41.9773L19.3529 41.9949L19.3121 42.0058C18.332 42.2676 17.3047 42.2986 16.3108 42.0964L9.41991 41.2087L73.7683 48.5443ZM73.7683 48.5443L73.7918 48.5561M73.7683 48.5443L73.7918 48.5561M73.7918 48.5561C74.2672 53.0666 76.7068 57.1272 80.439 59.6663C79.4776 59.9831 78.3536 59.9446 77.1105 59.9021L77.0275 59.8992C75.4847 59.8467 73.7372 59.7992 72.3766 60.8576C63.4219 67.7806 52.5062 71.6922 41.1928 72.0325C40.3044 72.0076 39.4172 72.1148 38.5603 72.3507L38.5468 72.3545L38.5335 72.3589C36.8854 72.9139 35.8709 74.2857 34.988 75.6002C34.8844 75.7544 34.7825 75.9079 34.6816 76.0599C33.978 77.1198 33.3211 78.1092 32.4447 78.8087C31.9546 78.2374 31.5992 77.5502 31.3121 76.7827C31.0178 75.9959 30.805 75.1542 30.5856 74.2863C30.5495 74.1432 30.5131 73.9994 30.4762 73.8551C29.9694 71.8737 29.356 69.743 27.466 68.5775C21.9606 65.1502 18.0914 59.6255 16.7524 53.2802C16.6904 52.9806 16.6305 52.6692 16.5694 52.3513C16.3822 51.3776 16.1831 50.3418 15.872 49.3909C15.4542 48.1142 14.8103 46.902 13.642 46.0746L13.6414 46.0742C12.9389 45.5783 12.1215 45.293 11.3836 45.0354C11.3349 45.0184 11.2865 45.0015 11.2385 44.9847C10.4354 44.7031 9.73243 44.4375 9.17014 43.9763C8.70085 43.5913 8.46989 42.8209 8.5646 42.1335C8.6107 41.7989 8.72755 41.543 8.87202 41.3901C9.00039 41.2541 9.16804 41.1768 9.41915 41.2086L73.7918 48.5561Z" fill="white" stroke="black"/>
    <path d="M114.697 66.708C105.67 66.708 99.652 60.513 99.652 50.778C99.652 41.043 105.611 34.848 114.697 34.848C122.662 34.848 127.972 39.391 128.857 46.53H121.423C120.715 42.754 118.001 41.043 114.697 41.043C110.272 41.043 107.263 44.111 107.263 50.778C107.263 57.445 110.39 60.513 114.697 60.513C118.06 60.513 120.951 58.684 121.541 54.672H128.975C128.149 62.106 122.485 66.708 114.697 66.708ZM152.986 52.607V35.556H160.42V66H153.222V61.575C151.216 64.525 148.03 66.708 143.664 66.708C137.351 66.708 133.044 62.991 133.044 55.734V35.556H140.478V54.495C140.478 58.389 142.366 60.277 146.201 60.277C149.446 60.277 152.986 58.035 152.986 52.607ZM178.439 66.826C169.766 66.826 164.987 63.699 164.515 56.324H171.772C172.185 60.159 174.132 61.516 178.557 61.516C182.864 61.516 184.575 60.159 184.575 57.858C184.575 55.675 183.218 54.613 178.616 53.846L175.135 53.256C168.586 52.135 165.164 49.244 165.164 44.052C165.164 38.329 169.648 34.848 177.79 34.848C187.171 34.848 191.006 38.919 191.242 45.173H184.221C184.044 41.279 181.625 40.158 177.79 40.158C174.191 40.158 172.48 41.515 172.48 43.698C172.48 45.94 174.25 46.825 177.554 47.415L181.389 48.005C188.705 49.303 191.95 52.017 191.95 57.268C191.95 63.404 186.935 66.826 178.439 66.826ZM212.602 34.848C218.974 34.848 223.281 38.565 223.281 45.822V66H215.847V47.061C215.847 43.167 213.9 41.279 210.124 41.279C206.879 41.279 203.339 43.521 203.339 48.949V66H195.905V23.992H203.339V39.627C205.345 36.854 208.472 34.848 212.602 34.848ZM236.697 32.016H229.322V25.054H236.697V32.016ZM236.756 66H229.322V35.556H236.756V66ZM256.907 66.708C247.644 66.708 241.39 60.454 241.39 50.778C241.39 41.102 247.644 34.848 256.907 34.848C266.17 34.848 272.365 41.102 272.365 50.778C272.365 60.454 266.17 66.708 256.907 66.708ZM256.907 60.572C261.686 60.572 264.813 57.209 264.813 50.778C264.813 44.347 261.686 40.984 256.907 40.984C252.069 40.984 249.001 44.347 249.001 50.778C249.001 57.209 252.069 60.572 256.907 60.572ZM293.727 34.848C300.099 34.848 304.406 38.565 304.406 45.822V66H296.972V47.061C296.972 43.167 295.025 41.279 291.249 41.279C288.004 41.279 284.464 43.521 284.464 48.949V66H277.03V35.556H284.228V39.922C286.175 37.031 289.42 34.848 293.727 34.848Z" fill="white"/>
</svg>
